# xmcd
#
# Track frame offsets: 
#        150
#        18373
#        33962
#        52962
#        66851
#        79314
#        96182
#        109262
#        120599
#        133903
#        151357
#
# Disc length: 2254 seconds
#
# Revision: 3
# Processed by: cddbd v1.5.2PL0 Copyright (c) Steve Scherf et al.
# Submitted via: ExactAudioCopy v0.99pb5
#
DISCID=8e08cc0b
DTITLE=Alabama 3 - Last Train To Mashville Vol. 2
DYEAR=2003
DGENRE=Bluegrass
TTITLE0=Woke Up This Morning
TTITLE1=Too Sick To Pray
TTITLE2=Year Zero
TTITLE3=Mansion On The Hill
TTITLE4=Speed Of The Sound Of Loneliness
TTITLE5=U Don't Danse To Tekno Anymore
TTITLE6=Bullet Proof
TTITLE7=Let The Caged Bird Sing
TTITLE8=Disneyland Is Burning
TTITLE9=Woody Guthrie
TTITLE10=Peace In The Valley
EXTD=
EXTT0=
EXTT1=
EXTT2=
EXTT3=
EXTT4=
EXTT5=
EXTT6=
EXTT7=
EXTT8=
EXTT9=
EXTT10=
PLAYORDER=
